# xmcd CD database file
#
# Track frame offsets:
#	150
#	9180
#	23653
#	35181
#	51832
#	63271
#	73720
#	85561
#	99829
#	110560
#	123007
#	133638
#	152424
#
# Disc length: 2227 seconds
#
# Revision: 1
# Processed by: cddbd v1.5.1PL2 Copyright (c) Steve Scherf et al.
# Submitted via: CDex 1.70beta2
#
DISCID=9608b10d
DTITLE=Various Artist - Country Christmas
DYEAR=2001
DGENRE=Country
TTITLE0=Donna Fargo - Rockin' Around the Christmas Tree
TTITLE1=Jeannie C. Riley - Silver Bells Jeannie
TTITLE2=Willie Nelson - December Day
TTITLE3=Jack Green - O Come All Ye Faithful
TTITLE4=Skeeter Davis - Santa Claus Is Coming to Town
TTITLE5=Eddy Raven - Silent Night
TTITLE6=Donna Fargo - Jingle Bells
TTITLE7=Joe Stampley - White Christmas
TTITLE8=Jeannie C. Riley - Away in a Manger
TTITLE9=Boxcar Willie - Blue Christmas
TTITLE10=Lacy J. Dalton - Winter Wonderland
TTITLE11=Eddy Raven - Have Yourself a Merry Little Christmaas
TTITLE12=Joe Stampley - Please Come Home for Christmas
EXTD=YEAR: 2001
EXTT0=
EXTT1=
EXTT2=
EXTT3=
EXTT4=
EXTT5=
EXTT6=
EXTT7=
EXTT8=
EXTT9=
EXTT10=
EXTT11=
EXTT12=
PLAYORDER=
